<?xml version="1.0" standalone="no"?>
<!DOCTYPE svg PUBLIC "-//W3C//DTD SVG 20010904//EN"
 "http://www.w3.org/TR/2001/REC-SVG-20010904/DTD/svg10.dtd">
<svg version="1.0" xmlns="http://www.w3.org/2000/svg"
 width="401.000000pt" height="401.000000pt" viewBox="0 0 401.000000 401.000000"
 preserveAspectRatio="xMidYMid meet">
<metadata>
Created by potrace 1.11, written by Peter Selinger 2001-2013
</metadata>
<g transform="translate(0.000000,401.000000) scale(0.100000,-0.100000)"
fill="#000000" stroke="none">
<path d="M1918 3955 c-2 -2 -39 -6 -83 -9 -44 -4 -83 -12 -87 -19 -6 -9 -8 -9
-8 1 0 7 -4 11 -9 8 -5 -3 -26 -8 -47 -11 -22 -4 -47 -8 -56 -11 -16 -5 -42
-11 -87 -20 -13 -3 -32 -9 -42 -14 -10 -6 -24 -10 -33 -10 -8 0 -27 -5 -43
-11 -15 -6 -28 -9 -28 -8 0 1 -11 -4 -25 -11 -14 -8 -27 -15 -30 -15 -37 -6
-273 -122 -278 -136 -2 -5 -9 -9 -16 -9 -7 0 -32 -13 -54 -30 -23 -16 -44 -30
-48 -30 -3 0 -33 -21 -66 -47 -33 -27 -71 -57 -86 -68 -41 -30 -212 -204 -257
-260 -22 -28 -43 -52 -46 -55 -22 -19 -151 -231 -202 -332 -76 -150 -150 -376
-171 -518 -23 -161 -26 -209 -26 -335 0 -118 5 -188 15 -252 3 -18 7 -50 11
-70 7 -54 42 -197 66 -273 26 -80 104 -266 127 -300 9 -14 22 -36 29 -50 12
-26 17 -33 66 -110 49 -76 136 -189 152 -198 9 -5 14 -11 12 -15 -3 -6 93
-107 170 -178 140 -129 351 -264 532 -342 117 -50 303 -107 400 -123 8 -1 31
-5 50 -8 37 -7 96 -14 170 -21 51 -6 255 -6 315 -1 118 10 296 38 335 52 8 3
26 8 40 10 35 6 113 31 195 62 74 28 247 110 255 121 3 3 22 15 43 26 103 54
332 254 417 364 14 17 31 38 38 46 6 7 12 16 12 20 0 3 11 18 25 33 14 15 25
32 25 39 0 7 3 13 8 13 4 0 18 21 32 48 13 26 27 49 31 52 14 11 48 93 42 103
-3 6 -1 7 5 3 11 -6 16 6 13 27 0 4 4 7 10 7 6 0 9 9 6 20 -3 11 -2 18 3 15 4
-3 13 10 20 28 7 17 19 46 26 64 8 17 14 40 14 51 0 12 4 23 9 26 10 6 26 78
24 108 0 10 4 15 8 12 5 -3 10 4 10 15 1 12 2 24 3 29 20 79 27 120 43 247 19
148 5 563 -22 655 -5 16 -61 20 -83 6 -7 -4 -12 -2 -12 4 0 8 -6 7 -21 -1 -16
-8 -20 -8 -14 1 6 9 3 9 -12 1 -11 -6 -23 -7 -27 -4 -8 9 -86 10 -86 1 0 -3
-13 -3 -29 2 -19 5 -33 4 -40 -3 -6 -6 -11 -7 -11 -2 0 11 -51 12 -68 1 -7 -4
-12 -2 -12 4 0 8 -6 7 -21 -1 -16 -8 -20 -8 -14 1 6 9 3 9 -12 1 -11 -6 -23
-7 -27 -4 -8 9 -86 10 -86 1 0 -3 -13 -3 -29 2 -19 5 -33 4 -40 -3 -6 -6 -11
-7 -11 -1 0 9 -83 9 -99 -1 -5 -3 -12 -2 -15 3 -5 9 -59 8 -75 -2 -5 -4 -12
-3 -14 1 -4 7 -151 9 -167 2 -3 -1 -9 0 -15 1 -30 6 -95 5 -95 -1 0 -4 -13 -4
-29 1 -19 5 -33 4 -40 -3 -6 -6 -11 -7 -11 -1 0 5 -9 10 -20 10 -11 0 -20 -4
-20 -8 0 -4 -6 -5 -14 -2 -23 9 -106 11 -106 3 0 -4 -13 -4 -29 1 -19 5 -33 4
-40 -3 -7 -7 -11 -7 -11 -1 0 9 -32 11 -50 4 -3 -1 -9 -1 -15 0 -28 5 -95 6
-95 0 0 -6 -35 -5 -50 0 -5 2 -73 2 -136 1 l-32 -1 1 -378 c0 -360 1 -378 19
-378 10 0 18 5 18 11 0 7 3 7 8 0 10 -15 944 -14 954 0 5 6 8 5 8 -2 0 -13 26
-13 46 -1 14 9 2 -69 -20 -129 -8 -24 -12 -43 -8 -43 4 0 2 -4 -4 -8 -5 -4
-21 -32 -33 -62 -13 -30 -37 -74 -53 -97 -16 -24 -27 -43 -25 -43 8 0 -78 -94
-127 -140 -27 -25 -60 -55 -73 -67 -13 -12 -23 -20 -23 -17 0 3 -19 -8 -42
-24 -39 -26 -169 -92 -182 -92 -2 0 -17 -5 -33 -12 -32 -13 -27 -11 -118 -33
-106 -25 -118 -26 -280 -30 -177 -5 -296 14 -436 68 -60 23 -86 34 -129 58
-62 35 -95 51 -96 48 0 -2 -12 9 -27 24 -15 17 -31 26 -38 21 -7 -4 -9 -3 -5
4 4 6 -4 16 -16 23 -27 14 -161 148 -198 197 -14 19 -31 40 -37 47 -7 8 -13
18 -13 24 0 5 -8 15 -17 20 -10 6 -15 11 -10 11 4 0 -4 18 -18 40 -24 37 -75
142 -80 165 -2 6 -10 30 -18 55 -83 252 -81 487 7 780 13 42 85 199 97 210 3
3 15 21 27 40 11 20 32 49 46 65 14 17 26 33 26 37 0 12 141 147 204 196 33
25 63 50 64 54 2 4 8 8 14 8 6 0 32 13 57 28 103 62 250 114 390 136 120 19
375 10 422 -15 9 -4 19 -6 21 -3 8 7 176 -56 238 -89 30 -17 64 -35 75 -41 27
-15 93 -65 130 -98 17 -16 34 -28 39 -28 16 0 475 464 469 474 -3 5 -2 6 4 3
5 -3 24 10 43 29 l33 35 -31 27 c-62 55 -108 92 -162 129 -30 21 -56 41 -58
46 -2 4 -8 7 -13 7 -5 0 -32 15 -61 33 -29 19 -89 51 -133 72 -44 20 -97 46
-118 56 -22 11 -45 19 -53 19 -8 0 -22 4 -32 10 -20 11 -158 52 -187 55 -11 1
-27 5 -36 9 -9 4 -35 8 -58 9 -22 1 -41 5 -41 10 0 4 -3 6 -7 5 -5 -1 -39 2
-78 6 -64 8 -351 16 -357 11z m1292 -1685 c0 -5 -5 -10 -11 -10 -5 0 -7 5 -4
10 3 6 8 10 11 10 2 0 4 -4 4 -10z m-5 -108 c-3 -3 -11 0 -18 7 -9 10 -8 11 6
5 10 -3 15 -9 12 -12z m-330 -72 c-3 -5 -12 -10 -18 -10 -7 0 -6 4 3 10 19 12
23 12 15 0z m115 2 c0 -5 -7 -9 -15 -9 -8 0 -12 4 -9 9 3 4 9 8 15 8 5 0 9 -4
9 -8z m854 -128 c3 -8 2 -12 -4 -9 -6 3 -10 10 -10 16 0 14 7 11 14 -7z
m-1694 -28 c0 -2 -7 -7 -16 -10 -8 -3 -12 -2 -9 4 6 10 25 14 25 6z m960 0 c0
-2 -7 -7 -16 -10 -8 -3 -12 -2 -9 4 6 10 25 14 25 6z m-779 -163 c13 -16 12
-17 -3 -4 -10 7 -18 15 -18 17 0 8 8 3 21 -13z m119 -3 c0 -5 -4 -10 -10 -10
-5 0 -10 5 -10 10 0 6 5 10 10 10 6 0 10 -4 10 -10z m185 0 c-3 -5 -12 -10
-18 -10 -7 0 -6 4 3 10 19 12 23 12 15 0z m115 6 c0 -2 -7 -7 -16 -10 -8 -3
-12 -2 -9 4 6 10 25 14 25 6z m840 -6 c0 -5 -5 -10 -11 -10 -5 0 -7 5 -4 10 3
6 8 10 11 10 2 0 4 -4 4 -10z"/>
</g>
</svg>
